HIERARCHY
ROOT Hips
{
    OFFSET 0.000000 0.000000 0.000000
    CHANNELS 6 Xposition Yposition Zposition Zrotation Xrotation Yrotation
    JOINT Spine
    {
        OFFSET 0.000002 7.164412 0.000002
        CHANNELS 3 Zrotation Xrotation Yrotation
        JOINT Spine1
        {
            OFFSET -0.000001 20.126801 -0.000002
            CHANNELS 3 Zrotation Xrotation Yrotation
            JOINT Neck
            {
                OFFSET 0.000000 21.094069 0.000000
                CHANNELS 3 Zrotation Xrotation Yrotation
                JOINT Head
                {
                    OFFSET -0.000001 12.838277 1.776080
                    CHANNELS 3 Zrotation Xrotation Yrotation
                    End Site
                    {
                        OFFSET 0.000000 17.760757 0.000000
                    }
                }
            }
            JOINT LeftShoulder
            {
                OFFSET 3.550527 15.465700 -0.908803
                CHANNELS 3 Zrotation Xrotation Yrotation
                JOINT LeftArm
                {
                    OFFSET 12.513296 -0.000006 -0.000002
                    CHANNELS 3 Zrotation Xrotation Yrotation
                    JOINT LeftForeArm
                    {
                        OFFSET 24.225996 -0.000003 0.000001
                        CHANNELS 3 Zrotation Xrotation Yrotation
                        JOINT LeftHand
                        {
                            OFFSET 20.711399 -0.000005 -0.000004
                            CHANNELS 3 Zrotation Xrotation Yrotation
                            JOINT LeftHandThumb1
                            {
                                OFFSET 2.121969 -2.411331 3.375859
                                CHANNELS 3 Zrotation Xrotation Yrotation
                                JOINT LeftHandThumb2
                                {
                                    OFFSET 2.803208 0.000003 0.000001
                                    CHANNELS 3 Zrotation Xrotation Yrotation
                                    JOINT LeftHandThumb3
                                    {
                                        OFFSET 2.395929 0.000004 -0.000003
                                        CHANNELS 3 Zrotation Xrotation Yrotation
                                        End Site
                                        {
                                            OFFSET 2.127676 0.000000 0.000000
                                        }
                                    }
                                }
                            }
                            JOINT LeftHandIndex1
                            {
                                OFFSET 8.680775 0.000005 3.375860
                                CHANNELS 3 Zrotation Xrotation Yrotation
                                JOINT LeftHandIndex2
                                {
                                    OFFSET 4.218178 -0.000000 -0.000000
                                    CHANNELS 3 Zrotation Xrotation Yrotation
                                    JOINT LeftHandIndex3
                                    {
                                        OFFSET 2.109086 -0.000004 0.000002
                                        CHANNELS 3 Zrotation Xrotation Yrotation
                                        End Site
                                        {
                                            OFFSET 1.872952 0.000000 0.000000
                                        }
                                    }
                                }
                            }
                            JOINT LeftHandMiddle1
                            {
                                OFFSET 8.680778 -0.000002 1.118860
                                CHANNELS 3 Zrotation Xrotation Yrotation
                                JOINT LeftHandMiddle2
                                {
                                    OFFSET 4.640003 -0.000004 -0.000001
                                    CHANNELS 3 Zrotation Xrotation Yrotation
                                    JOINT LeftHandMiddle3
                                    {
                                        OFFSET 2.530911 0.000002 -0.000001
                                        CHANNELS 3 Zrotation Xrotation Yrotation
                                        End Site
                                        {
                                            OFFSET 2.247544 0.000000 0.000000
                                        }
                                    }
                                }
                            }
                            JOINT LeftHandRing1
                            {
                                OFFSET 8.198517 0.000004 -1.118860
                                CHANNELS 3 Zrotation Xrotation Yrotation
                                JOINT LeftHandRing2
                                {
                                    OFFSET 4.218183 -0.000002 -0.000002
                                    CHANNELS 3 Zrotation Xrotation Yrotation
                                    JOINT LeftHandRing3
                                    {
                                        OFFSET 2.109094 0.000005 -0.000000
                                        CHANNELS 3 Zrotation Xrotation Yrotation
                                        End Site
                                        {
                                            OFFSET 1.872952 0.000000 0.000000
                                        }
                                    }
                                }
                            }
                            JOINT LeftHandPinky1
                            {
                                OFFSET 7.716254 0.000002 -3.375863
                                CHANNELS 3 Zrotation Xrotation Yrotation
                                JOINT LeftHandPinky2
                                {
                                    OFFSET 3.374536 0.000002 0.000001
                                    CHANNELS 3 Zrotation Xrotation Yrotation
                                    JOINT LeftHandPinky3
                                    {
                                        OFFSET 1.687274 -0.000002 -0.000004
                                        CHANNELS 3 Zrotation Xrotation Yrotation
                                        End Site
                                        {
                                            OFFSET 1.498360 0.000000 0.000000
                                        }
                                    }
                                }
                            }
                        }
                    }
                }
            }
            JOINT RightShoulder
            {
                OFFSET -3.550529 15.465699 -0.908801
                CHANNELS 3 Zrotation Xrotation Yrotation
                JOINT RightArm
                {
                    OFFSET -12.513299 -0.000001 -0.000000
                    CHANNELS 3 Zrotation Xrotation Yrotation
                    JOINT RightForeArm
                    {
                        OFFSET -24.226000 -0.000003 -0.000001
                        CHANNELS 3 Zrotation Xrotation Yrotation
                        JOINT RightHand
                        {
                            OFFSET -20.711397 -0.000003 -0.000002
                            CHANNELS 3 Zrotation Xrotation Yrotation
                            JOINT RightHandThumb1
                            {
                                OFFSET -2.121970 -2.411331 3.375859
                                CHANNELS 3 Zrotation Xrotation Yrotation
                                JOINT RightHandThumb2
                                {
                                    OFFSET -2.803209 -0.000004 0.000004
                                    CHANNELS 3 Zrotation Xrotation Yrotation
                                    JOINT RightHandThumb3
                                    {
                                        OFFSET -2.395928 0.000004 -0.000003
                                        CHANNELS 3 Zrotation Xrotation Yrotation
                                        End Site
                                        {
                                            OFFSET -2.127676 0.000000 0.000000
                                        }
                                    }
                                }
                            }
                            JOINT RightHandIndex1
                            {
                                OFFSET -8.680779 0.000001 3.375859
                                CHANNELS 3 Zrotation Xrotation Yrotation
                                JOINT RightHandIndex2
                                {
                                    OFFSET -4.218179 0.000003 -0.000001
                                    CHANNELS 3 Zrotation Xrotation Yrotation
                                    JOINT RightHandIndex3
                                    {
                                        OFFSET -2.109090 -0.000002 0.000000
                                        CHANNELS 3 Zrotation Xrotation Yrotation
                                        End Site
                                        {
                                            OFFSET -1.872952 0.000000 0.000000
                                        }
                                    }
                                }
                            }
                            JOINT RightHandMiddle1
                            {
                                OFFSET -8.680779 -0.000002 1.118859
                                CHANNELS 3 Zrotation Xrotation Yrotation
                                JOINT RightHandMiddle2
                                {
                                    OFFSET -4.639998 0.000003 -0.000001
                                    CHANNELS 3 Zrotation Xrotation Yrotation
                                    JOINT RightHandMiddle3
                                    {
                                        OFFSET -2.530910 -0.000000 -0.000000
                                        CHANNELS 3 Zrotation Xrotation Yrotation
                                        End Site
                                        {
                                            OFFSET -2.247544 0.000000 0.000000
                                        }
                                    }
                                }
                            }
                            JOINT RightHandRing1
                            {
                                OFFSET -8.198519 -0.000004 -1.118859
                                CHANNELS 3 Zrotation Xrotation Yrotation
                                JOINT RightHandRing2
                                {
                                    OFFSET -4.218180 -0.000005 0.000000
                                    CHANNELS 3 Zrotation Xrotation Yrotation
                                    JOINT RightHandRing3
                                    {
                                        OFFSET -2.109090 0.000002 0.000002
                                        CHANNELS 3 Zrotation Xrotation Yrotation
                                        End Site
                                        {
                                            OFFSET -1.872952 0.000000 0.000000
                                        }
                                    }
                                }
                            }
                            JOINT RightHandPinky1
                            {
                                OFFSET -7.716249 0.000004 -3.375858
                                CHANNELS 3 Zrotation Xrotation Yrotation
                                JOINT RightHandPinky2
                                {
                                    OFFSET -3.374539 0.000003 -0.000000
                                    CHANNELS 3 Zrotation Xrotation Yrotation
                                    JOINT RightHandPinky3
                                    {
                                        OFFSET -1.687270 -0.000004 -0.000001
                                        CHANNELS 3 Zrotation Xrotation Yrotation
                                        End Site
                                        {
                                            OFFSET -1.498360 0.000000 0.000000
                                        }
                                    }
                                }
                            }
                        }
                    }
                }
            }
        }
    }
    JOINT LeftUpLeg
    {
        OFFSET 8.880377 0.000003 0.000001
        CHANNELS 3 Zrotation Xrotation Yrotation
        JOINT LeftLeg
        {
            OFFSET -0.000000 -40.387413 0.000001
            CHANNELS 3 Zrotation Xrotation Yrotation
            JOINT LeftFoot
            {
                OFFSET -0.000000 -36.911304 0.000000
                CHANNELS 3 Zrotation Xrotation Yrotation
                JOINT LeftToeBase
                {
                    OFFSET 0.000003 -5.772240 13.320597
                    CHANNELS 3 Zrotation Xrotation Yrotation
                    End Site
                    {
                        OFFSET 0.000000 0.000000 3.552151
                    }
                }
            }
        }
    }
    JOINT RightUpLeg
    {
        OFFSET -8.880380 -0.000003 -0.000001
        CHANNELS 3 Zrotation Xrotation Yrotation
        JOINT RightLeg
        {
            OFFSET 0.000001 -40.387405 0.000000
            CHANNELS 3 Zrotation Xrotation Yrotation
            JOINT RightFoot
            {
                OFFSET -0.000001 -36.911304 -0.000001
                CHANNELS 3 Zrotation Xrotation Yrotation
                JOINT RightToeBase
                {
                    OFFSET 0.000000 -5.772241 13.320600
                    CHANNELS 3 Zrotation Xrotation Yrotation
                    End Site
                    {
                        OFFSET 0.000000 0.000000 3.552151
                    }
                }
            }
        }
    }
}
MOTION
Frames: 4
Frame Time: 0.013889
62.445034    82.022995    -11.335016    3.058264    5.404977    -3.514264    0.267739    -16.285000    0.954713    -1.299170    15.313271    1.227150    -14.659720    -13.848882    -5.002155    1.869671    2.660660    -1.507869    -4.493555    6.724217    -6.001830    -23.462132    55.078133    -25.775036    0.748109    0.856262    -41.145798    8.437751    33.789711    -17.832018    26.684067    38.204967    -49.542191    -21.900312    -4.277259    22.943375    -0.000000    0.000000    -0.000000    6.022324    17.906971    -32.589062    5.729584    0.000000    -0.000000    5.729580    -0.000005    0.000000    5.800519    8.954671    -16.271479    5.729577    0.000000    0.000002    5.729577    0.000002    -0.000002    5.800522    -8.954672    -4.823689    5.729575    0.000004    0.000003    5.729577    0.000000    0.000002    6.022323    -17.906979    -9.601262    5.729582    0.000003    -0.000002    5.729576    0.000000    0.000005    -1.787585    7.346592    5.195957    41.167339    51.267574    23.195059    -4.855705    4.231982    49.020142    -36.620300    16.970427    13.278047    -33.049587    32.512985    47.594952    14.728909    -1.215265    -23.287554    -0.000000    0.000000    -0.000000    -6.022320    17.906971    4.738100    -5.729579    -0.000000    0.000002    -5.729578    -0.000001    -0.000011    -5.800516    8.954674    2.345996    -5.729579    -0.000000    0.000000    -5.729578    -0.000002    -0.000003    -5.800513    -8.954667    4.525086    -5.729578    -0.000000    0.000005    -5.729579    0.000002    -0.000005    -6.022315    -17.906969    9.004063    -5.729580    0.000001    -0.000014    -5.729580    -0.000002    0.000000    -1.847509    -12.697193    9.194040    0.000000    30.411827    -0.000000    2.871536    -10.939595    -5.151585    -0.000000    0.741580    0.000000    -4.400521    -19.525078    -2.755680    -0.000000    40.702858    0.000001    8.419290    -10.906013    8.331632    0.000000    -7.146831    -0.000000    
62.433849    82.125519    -11.342868    3.449060    5.418414    -3.942619    0.250496    -16.191048    0.898278    -1.064735    15.166840    1.111266    -14.936715    -13.929748    -4.703825    1.645303    2.628771    -1.104956    -4.891227    6.425914    -5.912481    -25.524830    54.008934    -24.934757    -0.060423    -0.077518    -37.935364    3.685280    32.875572    -14.409816    25.073433    39.380672    -46.135010    -22.386148    -4.482138    22.906275    -0.000000    0.000000    -0.000000    6.022314    17.906971    -25.197008    5.729581    -0.000002    0.000000    5.729574    0.000002    0.000001    5.800508    8.954670    -12.575443    5.729577    -0.000002    -0.000002    5.729577    -0.000002    -0.000002    5.800509    -8.954674    -4.823680    5.729574    0.000003    -0.000002    5.729583    0.000007    -0.000005    6.022318    -17.906973    -9.601254    5.729574    0.000000    -0.000000    5.729580    0.000007    -0.000005    -1.864676    7.519634    5.407574    37.645496    52.936844    25.027637    -5.944619    4.933602    50.445854    -36.206352    16.803886    16.422714    -31.634090    33.677055    48.109177    15.389513    -1.499412    -23.271904    -0.000000    0.000000    -0.000000    -6.022320    17.906971    7.777507    -5.729578    0.000000    -0.000002    -5.729579    0.000000    0.000009    -5.800521    8.954672    3.865691    -5.729580    0.000002    -0.000004    -5.729577    -0.000001    -0.000004    -5.800518    -8.954673    4.823679    -5.729579    0.000002    -0.000003    -5.729578    -0.000002    -0.000003    -6.022316    -17.906969    9.601263    -5.729577    -0.000000    0.000005    -5.729581    -0.000007    -0.000005    -2.334997    -13.201907    8.944420    0.000001    31.121422    -0.000001    3.254841    -9.983713    -4.127697    0.000000    0.277804    0.000000    -4.803917    -18.667524    -3.017858    0.000000    39.024445    -0.000000    8.096455    -11.655244    8.943077    0.000001    -6.183642    0.000000    
62.401485    82.191406    -11.388167    3.813790    5.410470    -4.276317    0.223261    -16.097183    0.805171    -1.017665    15.111167    1.012233    -14.863865    -14.026465    -4.271516    1.619907    2.657014    -0.666289    -4.936207    6.163769    -6.116174    -27.441870    52.765724    -24.239367    -0.985895    -1.426932    -34.646564    -1.075843    32.421295    -10.433652    24.626537    39.512108    -43.887306    -22.161991    -4.387665    22.923620    -0.000000    0.000000    -0.000000    6.022327    17.906979    -18.182207    5.729578    -0.000003    0.000001    5.729579    0.000005    -0.000004    5.800512    8.954671    -9.068038    5.729578    -0.000000    -0.000003    5.729578    0.000002    0.000001    5.800510    -8.954675    -4.823685    5.729580    -0.000000    -0.000007    5.729576    -0.000001    -0.000018    6.022316    -17.906981    -9.601259    5.729576    0.000004    0.000005    5.729575    -0.000011    -0.000014    -1.738292    7.578963    5.578496    34.120247    54.181496    27.034716    -6.497174    5.180651    51.590321    -35.371300    16.620390    18.254732    -29.922520    35.195827    47.900440    16.199039    -1.847238    -23.248264    -0.000000    0.000000    -0.000000    -6.022321    17.906971    10.628322    -5.729578    0.000002    0.000001    -5.729579    -0.000000    0.000008    -5.800517    8.954670    5.291100    -5.729578    -0.000002    0.000002    -5.729579    0.000000    -0.000008    -5.800515    -8.954672    4.823694    -5.729578    -0.000003    -0.000007    -5.729581    -0.000000    0.000001    -6.022323    -17.906975    9.601259    -5.729580    0.000003    0.000005    -5.729580    -0.000003    -0.000002    -2.739182    -14.009211    8.608170    0.000000    32.400513    -0.000000    3.372176    -9.043581    -3.117230    -0.000000    -0.240578    -0.000000    -5.149859    -17.841232    -3.230942    -0.000000    37.415539    0.000000    7.886568    -12.461170    9.499543    0.000000    -5.258871    0.000000    
62.328159    82.254753    -11.499973    4.230536    5.436619    -4.580113    0.197234    -15.925305    0.718788    -1.023091    15.107841    0.934050    -14.529265    -14.325334    -3.910305    1.584867    2.667949    -0.315753    -5.042853    5.622600    -6.433066    -29.471262    50.682625    -23.724346    -2.303589    -4.041741    -29.714783    -8.016008    31.000576    -4.755758    25.629360    38.615505    -42.833519    -21.095757    -3.937076    23.000999    -0.000000    0.000000    -0.000000    6.022318    17.906982    -10.832990    5.729585    0.000002    0.000002    5.729578    0.000004    0.000002    5.800516    8.954673    -5.393438    5.729583    0.000002    0.000002    5.729579    0.000002    0.000002    5.800514    -8.954678    -4.823691    5.729584    0.000003    -0.000000    5.729578    -0.000003    0.000009    6.022332    -17.906975    -9.601268    5.729578    -0.000004    -0.000005    5.729575    0.000004    0.000003    -1.490237    7.619211    5.583058    29.814938    55.351467    29.398655    -7.276381    5.455460    53.329067    -34.009346    16.764297    20.278862    -27.089790    37.656868    46.445103    17.459940    -2.387966    -23.201666    -0.000000    0.000000    -0.000000    -5.971396    17.908537    14.228419    -5.681099    -0.000002    -0.000003    -5.681101    0.000001    0.000003    -5.775978    8.955054    7.095159    -5.705340    -0.000002    0.000001    -5.705338    0.000002    -0.000002    -5.788245    -8.954865    4.825598    -5.717459    0.000000    0.000000    -5.717461    -0.000000    0.000000    -6.022319    -17.906971    9.601266    -5.729579    -0.000003    -0.000004    -5.729580    0.000003    0.000004    -3.102817    -15.399659    8.149497    0.000000    34.509586    -0.000001    2.901055    -7.861501    -2.122566    -0.000000    -0.877435    -0.000000    -5.460820    -16.892717    -3.331891    0.000000    35.440670    0.000001    7.622148    -13.453611    9.864893    -0.000001    -4.217123    -0.000000    
